 <svg  version="1.0" xmlns="http://www.w3.org/2000/svg"  width="200.000000pt" height="200.000000pt" viewBox="0 0 200.000000 200.000000"  preserveAspectRatio="xMidYMid meet">  <g transform="translate(0.000000,200.000000) scale(0.100000,-0.100000)" fill="#000000" stroke="none"> <path d="M987 1814 c-4 -4 -7 -36 -7 -71 0 -57 2 -63 20 -63 19 0 21 5 18 67 -3 61 -14 84 -31 67z"/> <path d="M784 1768 c3 -13 9 -40 12 -60 7 -40 28 -66 39 -49 3 6 0 38 -7 71 -10 48 -16 60 -31 60 -15 0 -18 -5 -13 -22z"/> <path d="M1167 1730 c-12 -48 -12 -61 -2 -70 7 -6 15 -7 18 -3 10 17 35 122 29 127 -17 17 -31 0 -45 -54z"/> <path d="M600 1709 c0 -5 11 -35 25 -65 24 -53 41 -67 51 -41 7 19 -44 117 -61 117 -8 0 -15 -5 -15 -11z"/> <path d="M1342 1667 c-25 -60 -27 -77 -9 -77 15 0 70 107 62 121 -14 21 -33 6 -53 -44z"/> <path d="M818 1596 c-42 -12 -102 -38 -134 -57 -110 -65 -249 -214 -299 -321 l-18 -36 56 -84 c137 -206 343 -337 536 -341 62 -2 76 1 76 13 0 12 -19 17 -80 22 -86 7 -185 39 -256 83 -100 63 -225 171 -251 219 -15 27 66 -37 91 -72 27 -38 117 -90 213 -123 270 -92 557 -37 736 142 39 40 72 69 72 65 0 -11 -64 -95 -73 -96 -5 0 -25 -16 -45 -35 -67 -65 -181 -134 -258 -158 -68 -20 -89 -37 -65 -51 14 -9 147 39 209 76 79 46 199 168 257 262 l48 78 -19 36 c-41 78 -140 197 -210 252 -135 107 -254 150 -414 149 -68 0 -116 -6 -172 -23z m353 -37 c35 -12 84 -33 109 -47 76 -43 223 -167 259 -219 l34 -48 -54 50 c-29 28 -59 58 -66 67 -24 31 -83 62 -96 49 -6 -6 -9 -12 -6 -14 2 -2 33 -24 69 -49 36 -25 89 -71 118 -102 44 -46 51 -59 43 -75 -24 -43 -161 -157 -232 -192 -129 -64 -183 -87 -212 -92 l-28 -4 30 26 c25 22 28 30 20 50 -8 21 -14 23 -59 19 -34 -4 -59 -13 -75 -28 l-25 -23 -25 23 c-20 19 -37 24 -78 25 -33 0 -52 -4 -52 -12 0 -6 -3 -15 -8 -19 -4 -4 3 -18 15 -31 39 -41 11 -33 -167 53 -94 45 -201 125 -248 187 l-28 37 32 39 c67 84 181 164 297 207 34 13 65 24 69 24 4 0 -12 -16 -35 -35 -43 -37 -89 -120 -94 -169 -4 -35 21 -48 29 -16 l6 22 13 -23 c17 -30 18 -74 2 -102 l-12 -22 -6 25 c-10 41 -35 31 -33 -12 3 -49 44 -128 90 -175 32 -31 38 -34 41 -19 2 10 -5 28 -15 39 -21 23 -93 125 -93 130 0 2 7 4 15 4 9 0 14 -6 11 -13 -3 -7 4 -16 14 -19 28 -9 70 -63 70 -90 0 -18 4 -23 15 -19 26 10 18 60 -16 99 -17 19 -37 35 -45 35 -17 0 -17 1 1 36 19 37 19 67 0 104 -14 27 -13 29 5 35 52 17 89 106 56 134 -8 7 -14 26 -14 42 1 25 5 29 31 29 29 0 29 0 8 -17 -27 -23 -18 -61 16 -69 35 -9 99 12 118 39 l15 21 15 -21 c19 -27 84 -48 119 -39 20 5 26 13 26 34 0 15 -5 33 -12 40 -21 21 17 14 68 -13 52 -28 84 -32 84 -11 0 15 -25 26 -115 52 -44 13 -95 18 -190 17 -112 0 -143 -4 -220 -27 -121 -37 -177 -69 -258 -149 -38 -37 -71 -66 -73 -64 -9 8 64 88 121 134 120 97 205 144 295 162 30 6 64 13 75 15 41 10 174 -5 236 -25z m-143 -68 c9 -6 41 -17 70 -26 62 -20 67 -35 11 -35 -33 0 -47 6 -70 31 -16 17 -29 26 -29 20 0 -6 -4 -11 -10 -11 -5 0 -10 7 -10 15 0 17 13 19 38 6z m-58 -21 c-6 -11 -19 -24 -30 -30 -24 -13 -90 -13 -90 0 0 7 91 42 128 49 1 1 -2 -8 -8 -19z m-172 -117 c-7 -15 -27 -35 -44 -43 -17 -9 -29 -21 -26 -28 2 -7 -3 -12 -12 -12 -22 0 -20 5 16 53 61 79 73 90 76 73 2 -8 -3 -28 -10 -43z m164 -440 c16 -15 28 -21 28 -14 0 10 3 11 13 2 11 -8 18 -6 33 10 26 29 62 41 97 33 38 -8 24 -17 -65 -44 -65 -20 -70 -20 -125 -4 -80 23 -100 34 -82 45 22 15 71 1 101 -28z"/> <path d="M1190 1437 c0 -8 -7 -20 -15 -27 -8 -7 -15 -24 -15 -38 0 -30 42 -88 69 -97 18 -5 19 -8 5 -40 -18 -43 -18 -63 1 -99 18 -35 18 -36 1 -36 -8 0 -28 -16 -45 -35 -34 -40 -42 -89 -15 -99 10 -4 14 -14 11 -26 -8 -31 9 -24 52 20 108 111 120 301 28 421 -40 52 -77 79 -77 56z m61 -94 c25 -41 19 -52 -16 -29 -26 17 -45 53 -45 83 0 14 3 14 20 -2 12 -10 30 -34 41 -52z m39 -63 c0 -5 -4 -10 -10 -10 -5 0 -10 5 -10 10 0 6 5 10 10 10 6 0 10 -4 10 -10z m5 -128 c-6 -34 -8 -36 -21 -17 -17 23 -18 65 -2 101 l13 27 8 -37 c5 -20 6 -53 2 -74z m-40 -116 c-54 -77 -65 -86 -65 -53 0 30 35 75 67 88 13 5 22 13 19 18 -5 8 14 22 22 16 2 -2 -18 -32 -43 -69z"/> <path d="M982 1373 c4 -21 33 -25 33 -3 0 8 -8 16 -18 18 -14 3 -18 -1 -15 -15z"/> <path d="M864 1339 c-10 -17 13 -36 27 -22 12 12 4 33 -11 33 -5 0 -12 -5 -16 -11z"/> <path d="M1104 1339 c-10 -17 13 -36 27 -22 12 12 4 33 -11 33 -5 0 -12 -5 -16 -11z"/> <path d="M934 1301 c-48 -29 -64 -59 -64 -118 0 -46 4 -56 34 -87 19 -19 49 -37 65 -41 47 -10 89 3 127 41 31 31 34 40 34 91 0 53 -3 59 -40 95 -34 32 -48 38 -83 38 -24 0 -56 -8 -73 -19z m134 -45 c32 -31 38 -83 13 -123 -54 -86 -192 -34 -177 66 12 82 104 114 164 57z"/> <path d="M956 1231 c-11 -12 -16 -31 -14 -52 7 -73 109 -73 116 0 4 41 -21 71 -58 71 -15 0 -35 -9 -44 -19z m72 -49 c-4 -22 -46 -28 -54 -8 -4 9 -1 23 6 31 16 19 53 1 48 -23z"/> <path d="M800 1234 c0 -9 7 -14 17 -12 25 5 28 28 4 28 -12 0 -21 -6 -21 -16z"/> <path d="M1162 1238 c7 -19 38 -22 38 -4 0 10 -9 16 -21 16 -12 0 -19 -5 -17 -12z"/> <path d="M810 1125 c0 -8 7 -15 15 -15 8 0 15 7 15 15 0 8 -7 15 -15 15 -8 0 -15 -7 -15 -15z"/> <path d="M1160 1125 c0 -8 7 -15 15 -15 8 0 15 7 15 15 0 8 -7 15 -15 15 -8 0 -15 -7 -15 -15z"/> <path d="M877 1044 c-9 -10 2 -24 19 -24 8 0 14 7 14 15 0 15 -21 21 -33 9z"/> <path d="M1090 1035 c0 -10 7 -15 18 -13 21 4 19 22 -2 26 -10 2 -16 -3 -16 -13z"/> <path d="M984 1009 c-10 -17 13 -36 27 -22 12 12 4 33 -11 33 -5 0 -12 -5 -16 -11z"/> <path d="M446 1602 c-8 -14 75 -111 90 -105 21 8 18 15 -23 67 -36 44 -56 55 -67 38z"/> <path d="M1485 1565 c-25 -31 -35 -51 -30 -63 6 -14 14 -8 51 33 24 27 44 55 44 62 0 26 -29 12 -65 -32z"/> <path d="M482 831 c-34 -40 -39 -51 -28 -60 11 -10 22 -3 53 34 21 25 38 51 38 57 0 27 -24 15 -63 -31z"/> <path d="M1455 870 c-11 -19 66 -117 84 -106 18 12 13 27 -26 70 -42 47 -49 51 -58 36z"/> <path d="M624 729 c-23 -47 -26 -79 -6 -79 8 0 62 103 62 120 0 6 -7 10 -15 10 -8 0 -26 -23 -41 -51z"/> <path d="M1320 765 c0 -22 48 -115 60 -115 21 0 19 22 -7 74 -26 53 -53 74 -53 41z"/> <path d="M806 708 c-27 -89 -26 -142 1 -125 13 8 36 114 28 127 -9 14 -25 13 -29 -2z"/> <path d="M1156 712 c-4 -7 22 -120 30 -131 2 -2 10 -1 17 2 13 5 13 14 2 60 -7 31 -16 60 -20 66 -7 13 -22 14 -29 3z"/> <path d="M987 693 c-4 -3 -7 -35 -7 -70 0 -49 3 -63 15 -63 12 0 15 14 15 70 0 64 -6 81 -23 63z"/> <path d="M1375 440 c-3 -5 -41 -10 -84 -10 -46 0 -82 -5 -89 -12 -17 -17 -15 -44 4 -62 18 -18 54 -21 54 -5 0 6 -9 9 -20 6 -25 -6 -34 7 -26 39 5 20 13 24 41 24 l35 0 0 -84 c0 -58 -4 -86 -12 -89 -7 -3 3 -6 22 -6 26 -1 31 2 22 11 -7 7 -12 43 -12 89 l0 78 42 3 c23 2 43 9 46 16 4 14 -14 16 -23 2z"/> <path d="M656 433 c-13 -14 -5 -24 14 -18 19 6 20 2 20 -78 0 -59 -4 -87 -12 -90 -7 -3 3 -6 22 -6 19 0 30 3 24 7 -12 7 -24 132 -14 132 3 0 27 -32 54 -70 27 -39 52 -70 55 -70 3 0 6 40 6 90 0 71 3 90 15 94 8 2 -1 4 -20 4 -19 0 -29 -2 -22 -5 8 -3 12 -28 12 -75 l0 -71 -52 73 c-49 67 -87 98 -102 83z"/> <path d="M320 419 c0 -6 7 -9 15 -5 19 7 20 10 -11 -76 -14 -40 -33 -79 -42 -86 -13 -10 -10 -12 24 -12 30 1 35 3 22 10 -28 17 -11 47 29 52 28 3 37 0 43 -16 6 -15 3 -25 -8 -33 -13 -11 -10 -13 23 -13 35 0 37 1 23 18 -9 9 -26 46 -39 82 -12 36 -27 71 -32 78 -12 15 -47 16 -47 1z m56 -64 c11 -34 10 -35 -16 -35 -26 0 -27 1 -16 35 6 19 13 35 16 35 3 0 10 -16 16 -35z"/> <path d="M485 405 c-36 -35 -35 -106 1 -141 21 -22 32 -25 70 -22 34 2 44 0 44 -12 0 -25 -16 -41 -33 -34 -10 3 -17 1 -17 -5 0 -19 49 -12 60 8 5 11 10 40 10 65 0 26 5 46 13 49 6 3 -6 6 -27 6 -35 1 -38 0 -22 -12 30 -22 16 -52 -25 -55 -44 -4 -69 21 -76 75 -10 79 70 125 116 67 20 -25 21 -25 21 -6 0 47 -94 59 -135 17z"/> <path d="M889 404 c-34 -36 -34 -102 1 -139 20 -21 32 -25 64 -23 51 4 81 42 80 100 -3 80 -92 118 -145 62z m101 -6 c27 -30 28 -100 0 -128 -45 -45 -100 -9 -100 67 0 77 54 110 100 61z"/> <path d="M1083 424 c-25 -11 -12 -49 29 -91 35 -36 41 -47 32 -61 -16 -25 -51 -27 -63 -3 -12 22 -1 34 23 25 9 -3 16 -2 16 4 0 6 -6 12 -12 15 -22 8 -48 -13 -48 -38 0 -52 102 -44 108 8 3 22 -5 36 -39 67 -28 25 -40 43 -36 54 9 24 46 20 57 -6 10 -23 10 -23 7 2 -2 20 -8 25 -32 27 -16 1 -36 0 -42 -3z"/> <path d="M1462 423 c-20 -8 -42 -59 -42 -98 0 -72 85 -112 141 -66 20 16 24 28 24 76 0 48 -4 60 -24 76 -22 18 -70 24 -99 12z m81 -20 c48 -54 24 -153 -38 -153 -31 0 -65 44 -65 85 0 66 66 109 103 68z"/> <path d="M1632 418 c-20 -20 -14 -38 28 -75 57 -51 54 -104 -6 -89 -16 4 -24 13 -24 27 0 18 4 20 25 15 27 -7 35 8 10 18 -36 13 -69 -31 -45 -59 18 -21 74 -19 94 4 22 24 10 54 -37 100 -36 34 -39 61 -6 61 10 0 25 -10 34 -22 l16 -23 -3 25 c-2 21 -9 26 -38 28 -19 2 -41 -3 -48 -10z"/> </g> </svg> 